<svg width="16" height="14" viewBox="0 0 16 14" fill="none" xmlns="http://www.w3.org/2000/svg">
<path d="M7.46933 13.9048C7.29985 13.8408 7.15081 13.7428 7.02222 13.6111L6.00178 12.6729C4.41956 11.2074 3.024 9.78205 1.81511 8.39691C0.605037 7.01239 0 5.57316 0 4.07925C0 2.92618 0.384 1.95804 1.152 1.17482C1.92 0.391608 2.86933 0 4 0C4.6483 0 5.32356 0.167098 6.02578 0.501295C6.728 0.835491 7.38607 1.46581 8 2.39225C8.61452 1.46581 9.27259 0.835491 9.97422 0.501295C10.6759 0.167098 11.3511 0 12 0C13.1307 0 14.08 0.391608 14.848 1.17482C15.616 1.95804 16 2.92618 16 4.07925C16 5.60761 15.3704 7.07675 14.1111 8.48666C12.8519 9.89657 11.4735 11.2932 9.976 12.6765L8.96089 13.6111C8.8317 13.7428 8.6797 13.8404 8.50489 13.9039C8.33007 13.9674 8.15615 13.9994 7.98311 14C7.81007 14.0006 7.63881 13.9695 7.46933 13.9048Z" fill="white"/>
</svg>
